<?xml version="1.0" encoding="UTF-8"?>
<svg id="Layer_2" data-name="Layer 2" xmlns="http://www.w3.org/2000/svg" viewBox="0 0 939.54 129.94">
  <defs>
    <style>
      .cls-1 {
        fill: #be2642;
        stroke-width: 0px;
      }
    </style>
  </defs>
  <g id="Layer_1-2" data-name="Layer 1">
    <polygon class="cls-1" points="769.35 115.94 769.35 129.94 832.32 129.94 832.32 115.94 817.69 115.94 817.69 23.46 832.32 23.46 832.32 0 769.35 0 769.35 23.46 791.25 23.46 791.25 115.94 769.35 115.94"/>
    <polygon class="cls-1" points="742.71 128.83 742.71 115.94 686.31 115.94 686.31 0 659.87 0 659.87 128.83 742.71 128.83"/>
    <polygon class="cls-1" points="583.03 128.83 583.03 80.56 598.31 80.56 598.31 58.07 583.03 58.07 583.03 23.46 640.04 23.46 640.04 0 556.59 0 556.59 128.83 583.03 128.83"/>
    <path class="cls-1" d="M480.16,128.83v-45.38l25.3,45.38h30.72l-25.45-45.19c17.77-4.42,4.37-11.4,4.37-33.12,0-27.5,7.2-50.52-20.27-50.52h-41.52v128.83h26.85ZM480.16,23.46h9.3c14.67,0,22.31,4.81,22.31,21.34s-7.23,23.65-19.21,23.65h-12.39V23.46Z"/>
    <polygon class="cls-1" points="429.55 128.83 429.55 115.94 379.97 115.94 379.97 80.18 395.96 80.18 395.96 57.68 379.97 57.68 379.97 23.46 425.94 23.46 425.94 0 353.53 0 353.53 128.83 429.55 128.83"/>
    <path class="cls-1" d="M286.19,0h-39.46v128.83h26.44v-36.92h12.6c32.23,0,40-17.5,40-45.95S316.76,0,286.19,0ZM285.77,68.45h-12.6V23.46h12.6c14.25,0,20.45,6.73,20.45,21.73s-6.82,23.27-20.45,23.27Z"/>
    <path class="cls-1" d="M899.96,0h-39.46v129.94h26.44v-38.03h12.6c32.23,0,40-17.5,40-45.95S930.53,0,899.96,0ZM899.55,68.45h-12.6V23.46h12.6c14.25,0,20.45,6.73,20.45,21.73s-6.82,23.27-20.45,23.27Z"/>
    <path class="cls-1" d="M493,.55h-39.46v128.83h26.44v-36.92h12.6c32.23,0,40-17.5,40-45.95S523.57.55,493,.55ZM492.59,69h-12.6V24.01h12.6c14.25,0,20.45,6.73,20.45,21.73s-6.82,23.27-20.45,23.27Z"/>
    <polyline class="cls-1" points="196.8 0 195.86 83.83 195.86 128.83 169.41 128.83 169.41 83.83 133.47 0 164.66 0 183.25 50.38"/>
    <path class="cls-1" d="M104.39,21.87h-34.61v108.07h-31.12V21.87H0V0h104.39v21.87Z"/>
  </g>
</svg>